 http://leetleech.org/images/05297134058638383488.jpg

Screens:
 
http://leetleech.org/images/21563292594792979424.jpg
 
http://leetleech.org/images/57438171477047229911.jpg
 
http://leetleech.org/images/52515835375588255171.jpg
 
http://leetleech.org/images/61601542426230099546.jpg
 
http://leetleech.org/images/37706588912329571939.jpg

Alternative:
 
http://www.postimg.com/image/32000/photo-31979.jpg
 
http://www.postimg.com/image/32000/photo-31980.jpg
 
http://www.postimg.com/image/32000/photo-31981.jpg
 
http://www.postimg.com/image/32000/photo-31982.jpg
 
http://www.postimg.com/image/32000/photo-31983.jpg

ScreenCaps:
 
http://www.postimg.com/image/32000/photo-31984.jpg

The Way Back (2010) DVDRip XviD-MAX
Format                           : AVI
Format/Info                      : Audio Video Interleave
Format profile                   : OpenDML
File size                        : 1.12 GiB
Duration                         : 2h 13mn
Overall bit rate                 : 1 206 Kbps
Writing application              : VirtualDubMod 1.5.10.2 (build 2542/release)
Writing library                  : VirtualDubMod build 2542/release
Original source form             : MAX TORRENTZ
Copyright                        : SIGISMUNT

Video
ID                               : 0
Format                           : MPEG-4 Visual
Format profile                   : AdvancedSimple@L5
Format settings, BVOP            : Yes
Format settings, QPel            : No
Format settings, GMC             : No warppoints
Format settings, Matrix          : Default (MPEG)
Muxing mode                      : Packed bitstream
Codec ID                         : XVID
Codec ID/Hint                    : XviD
Duration                         : 2h 13mn
Bit rate                         : 1 011 Kbps
Width                            : 640 pixels
Height                           : 272 pixels
Display aspect ratio             : 2.35:1
Frame rate                       : 23.976 fps
Resolution                       : 24 bits
Colorimetry                      : 4:2:0
Scan type                        : Progressive
Bits/(Pixel*Frame)               : 0.242
Stream size                      : 964 MiB (84%)
Writing library                  : XviD 1.2.1 (UTC 2008-12-04)

Audio
ID                               : 1
Format                           : MPEG Audio
Format version                   : Version 1
Format profile                   : Layer 3
Codec ID                         : 55
Codec ID/Hint                    : MP3
Duration                         : 2h 13mn
Bit rate mode                    : Constant
Bit rate                         : 192 Kbps
Channel(s)                       : 2 channels
Sampling rate                    : 48.0 KHz
Resolution                       : 16 bits
Stream size                      : 183 MiB (16%)
Alignment                        : Aligned on interleaves
Interleave, duration             : 679 ms (16.29 video frames)
Interleave, preload duration     : 216 ms
Writing library                  : LAME3.98.2

Source: DVD (perfect a/v/sync quality with additional volume power,sample included,english
hardcoded subtitle on few foreign parts)

Note:If you have something to offer as early releases,seedboxes,
links,accounts,etc please contact us on torentz 3xforum ro
Seed Stats: 20-400 GiB at aprox 10 MiB/sec/20 slots per torrent
 
http://www.imdb.com/title/tt1023114/

The Way Back (2010) DVDRip XviD-MAX Torrent Free Download
 
http://thepiratebay.org/user/extremezone/0/7

How To Get Your Maxspeed (uTorrent)

Torrent Client - Preferences - Bandwidth - Number of connections - Set aprox. 500 for each 
Torrent Client - Preferences - BiTorrent - Protocol Encryption - Forced
Bandwidth Allocation - High (Set download/upload limit - Unlimited)
Stop Other Active Torrents - Start downloading and wait for connections.
Enjoy and Seed for at least 1:1 ratio. Don't forget to say thanks/leave reviews.
Before downloading you should check/google search sample "release name""sample".
Greets to all actual/future p2p/scene QUALITY groups and affiliate websites.
Don't trust IMDb robot or bad ratings,always watch some trailers first.
Ignore stupid comments/fake/mislabeled/no-DVDrips/CAM/TS/RAR uploads.
Please spread this release/torrent to your friends/forums/etc.
If you need translation subs visit some subtitles sites.
Report if you see online streaming or other spam links.
Recommended movie player VLC PLAYER.